<svg width="52" height="52" viewBox="0 0 52 52" fill="none" xmlns="http://www.w3.org/2000/svg">
<path d="M26.6067 41.6626C28.132 41.5586 29.6371 41.316 31.122 40.9346C32.9493 41.4823 34.8772 41.6067 36.7597 41.2986C36.8345 41.2889 36.9097 41.2831 36.985 41.2813C37.6567 41.2813 38.5385 41.667 39.8234 42.4795V41.1448C39.8237 40.9122 39.8864 40.684 40.0049 40.484C40.1234 40.2839 40.2934 40.1193 40.4972 40.0073C41.0469 39.7007 41.5669 39.3439 42.0507 38.9413C43.9227 37.3748 44.98 35.2883 44.98 33.0783C44.98 32.346 44.863 31.6201 44.6355 30.9268C45.1989 29.8868 45.6582 28.7905 45.994 27.6551C47.0774 29.2585 47.6624 31.1435 47.6667 33.0783C47.6667 36.0813 46.2497 38.885 43.7992 40.9325C43.3893 41.2735 42.9587 41.589 42.51 41.8771V45.0015C42.51 46.0761 41.2534 46.6915 40.3672 46.0545C39.5288 45.4353 38.6612 44.8569 37.7672 44.3211C37.5102 44.17 37.243 44.0368 36.9677 43.9225C36.231 44.0308 35.4814 44.0857 34.7187 44.0871C31.6594 44.0871 28.8319 43.1814 26.6067 41.6626ZM10.4304 35.4139C6.56504 32.1835 4.33337 27.7721 4.33337 23.0531C4.33337 13.4028 13.559 5.68945 24.8235 5.68945C36.088 5.68945 45.3159 13.4028 45.3159 23.051C45.3159 32.7035 36.088 40.4146 24.8235 40.4146C23.5568 40.4146 22.3088 40.3186 21.0795 40.1265C20.5487 40.25 18.4275 41.4936 15.3704 43.6971C14.2654 44.4966 12.6924 43.7253 12.6924 42.3798V37.0498C11.9003 36.5599 11.1444 36.014 10.4304 35.4161M21.1554 36.8418C21.2464 36.8418 21.3403 36.849 21.437 36.8635C22.5563 37.0491 23.689 37.1418 24.8235 37.1408C34.3395 37.1408 41.9554 30.773 41.9554 23.0531C41.9554 15.3333 34.3395 8.96762 24.8235 8.96762C15.3119 8.96762 7.69171 15.3355 7.69171 23.0531C7.69171 26.7863 9.47054 30.3006 12.6165 32.931C13.411 33.5925 14.2748 34.1855 15.2079 34.7098C15.73 35.0001 16.0529 35.544 16.0529 36.129V39.2035C18.4709 37.6001 20.0612 36.8418 21.1532 36.8418" fill="white"/>
<path d="M16.5208 26.0002C17.2391 26.0002 17.928 25.7148 18.4359 25.2069C18.9438 24.699 19.2292 24.0101 19.2292 23.2918C19.2292 22.5735 18.9438 21.8847 18.4359 21.3767C17.928 20.8688 17.2391 20.5835 16.5208 20.5835C15.8025 20.5835 15.1137 20.8688 14.6058 21.3767C14.0978 21.8847 13.8125 22.5735 13.8125 23.2918C13.8125 24.0101 14.0978 24.699 14.6058 25.2069C15.1137 25.7148 15.8025 26.0002 16.5208 26.0002Z" fill="white"/>
<path d="M25.3219 26.0002C26.0402 26.0002 26.729 25.7148 27.2369 25.2069C27.7449 24.699 28.0302 24.0101 28.0302 23.2918C28.0302 22.5735 27.7449 21.8847 27.2369 21.3767C26.729 20.8688 26.0402 20.5835 25.3219 20.5835C24.6036 20.5835 23.9147 20.8688 23.4068 21.3767C22.8989 21.8847 22.6135 22.5735 22.6135 23.2918C22.6135 24.0101 22.8989 24.699 23.4068 25.2069C23.9147 25.7148 24.6036 26.0002 25.3219 26.0002Z" fill="white"/>
<path d="M34.1251 26.0021C34.8434 26.0021 35.5323 25.7168 36.0402 25.2089C36.5481 24.701 36.8334 24.0121 36.8334 23.2938C36.8334 22.5755 36.5481 21.8866 36.0402 21.3787C35.5323 20.8708 34.8434 20.5854 34.1251 20.5854C33.4068 20.5854 32.7179 20.8708 32.21 21.3787C31.7021 21.8866 31.4167 22.5755 31.4167 23.2938C31.4167 24.0121 31.7021 24.701 32.21 25.2089C32.7179 25.7168 33.4068 26.0021 34.1251 26.0021Z" fill="white"/>
</svg>
