<svg width="34" height="34" viewBox="0 0 34 34" fill="none" xmlns="http://www.w3.org/2000/svg">
<g clip-path="url(#clip0_2006_826)">
<path d="M6.06548 25.3919L8.02905 2.37625L30.2285 6.27833L24.2236 28.58L14.6897 29.5025L6.06548 25.3919Z" fill="#1572B6"/>
<path d="M15.0418 27.5788L22.7463 26.8334L27.8778 7.77564L18.8031 6.18054L15.0418 27.5788Z" fill="#33A9DC"/>
<path d="M17.36 14.3902L21.0377 15.0367L21.7915 12.2353L17.8602 11.5443L18.3488 8.76483L25.3175 9.98977L25.12 10.7235L23.0912 18.2629L16.8714 17.1696L17.36 14.3902Z" fill="white"/>
<path d="M16.1084 21.6111L16.0952 21.6125L13.1471 20.2322L13.3389 17.9809L10.5487 17.4904L10.171 21.9227L15.586 24.5041L15.6001 24.5029L16.1084 21.6111Z" fill="#EBEBEB"/>
<path d="M20.3333 17.6567L19.3446 21.3197L16.0981 21.6111L15.5898 24.503L21.5647 23.9254L21.6894 23.4635L23.1217 18.1469L20.3333 17.6567Z" fill="white"/>
<path d="M18.3587 8.76657L17.8702 11.546L11.1568 10.3659L11.2109 9.7312L11.3318 8.29987L11.3962 7.54274L18.3587 8.76657ZM17.36 14.3902L16.8715 17.1696L13.8151 16.6324L13.8692 15.9977L13.991 14.5665L14.0555 13.8094L17.36 14.3902Z" fill="#EBEBEB"/>
</g>
<defs>
<clipPath id="clip0_2006_826">
<rect width="29.2155" height="29.2155" fill="white" transform="translate(5.05774) rotate(9.96929)"/>
</clipPath>
</defs>
</svg>
