<svg width="63" height="61" viewBox="0 0 63 61" fill="none" xmlns="http://www.w3.org/2000/svg">
<g clip-path="url(#clip0_2006_821)">
<path d="M20.1634 50.5348L6.44592 12.6163L44.4913 2.56918L51.2777 42.3114L36.8396 50.7447L20.1634 50.5348Z" fill="#E44F26"/>
<path d="M35.9911 47.438L47.6588 40.6231L41.8584 6.66184L26.3074 10.7686L35.9911 47.438Z" fill="#F1662A"/>
<path d="M30.1105 25.1701L23.8081 26.8344L22.0856 22.0721L28.8225 20.293L27.5647 15.53L15.6226 18.6838L16.0743 19.9326L20.7097 32.7478L31.3683 29.9331L30.1105 25.1701ZM33.3769 37.5391L33.357 37.5509L27.6751 37.5201L26.333 33.8112L21.5515 35.0739L24.1931 42.3743L34.6657 42.5065L34.6856 42.4947L33.3769 37.5391Z" fill="#EBEBEB"/>
<path d="M30.0936 25.1745L31.3514 29.9375L37.2162 28.3888L38.2959 34.712L33.3613 37.5482L34.67 42.5038L43.7198 37.2176L43.5783 36.3946L41.3858 23.5606L41.1651 22.2507L30.0936 25.1745ZM27.5479 15.5345L28.8057 20.2975L40.3102 17.2594L40.1233 16.1647L39.7029 13.6927L39.4792 12.3837L27.5479 15.5345Z" fill="white"/>
</g>
<defs>
<clipPath id="clip0_2006_821">
<rect width="51" height="51" fill="white" transform="translate(0 11.0218) rotate(-14.7931)"/>
</clipPath>
</defs>
</svg>
