<svg width="41" height="41" viewBox="0 0 41 41" fill="none" xmlns="http://www.w3.org/2000/svg">
<g clip-path="url(#clip0_2303_2084)">
<path d="M7.2325 30.2757L9.57373 2.83329L36.0428 7.48588L28.8831 34.0769L17.5154 35.1768L7.2325 30.2757Z" fill="#1572B6"/>
<path d="M17.9348 32.8831L27.121 31.9944L33.2395 9.27117L22.4194 7.36928L17.9348 32.8831Z" fill="#33A9DC"/>
<path d="M20.6985 17.158L25.0835 17.9287L25.9823 14.5885L21.2949 13.7646L21.8774 10.4506L30.1866 11.9111L29.951 12.786L27.532 21.7755L20.1159 20.472L20.6985 17.158Z" fill="white"/>
<path d="M19.2062 25.7676L19.1904 25.7693L15.6753 24.1235L15.904 21.4392L12.5771 20.8545L12.1268 26.1392L18.5833 29.2171L18.6001 29.2157L19.2062 25.7676Z" fill="#EBEBEB"/>
<path d="M24.2439 21.0527L23.0651 25.4202L19.1941 25.7677L18.5881 29.2157L25.7121 28.5271L25.8609 27.9763L27.5687 21.6371L24.2439 21.0527Z" fill="white"/>
<path d="M21.89 10.4527L21.3075 13.7667L13.3028 12.3597L13.3674 11.6029L13.5115 9.89623L13.5884 8.99348L21.89 10.4527ZM20.6992 17.158L20.1167 20.472L16.4725 19.8314L16.537 19.0746L16.6822 17.3681L16.7591 16.4654L20.6992 17.158Z" fill="#EBEBEB"/>
</g>
<defs>
<clipPath id="clip0_2303_2084">
<rect width="34.8346" height="34.8346" fill="white" transform="translate(6.03076) rotate(9.96929)"/>
</clipPath>
</defs>
</svg>
