<svg width="45" height="45" viewBox="0 0 45 45" fill="none" xmlns="http://www.w3.org/2000/svg">
<g clip-path="url(#clip0_2303_2091)">
<path d="M14.4764 37.7172L4.62793 10.4937L31.9425 3.28043L36.8148 31.8133L26.449 37.8679L14.4764 37.7172Z" fill="#E44F26"/>
<path d="M25.8396 35.4939L34.2164 30.6012L30.052 6.21874L18.8872 9.16718L25.8396 35.4939Z" fill="#F1662A"/>
<path d="M21.6174 19.5067L17.0926 20.7016L15.856 17.2825L20.6927 16.0052L19.7897 12.5857L11.2158 14.8499L11.5402 15.7465L14.8681 24.9471L22.5204 22.9263L21.6174 19.5067ZM23.9625 28.387L23.9482 28.3955L19.8689 28.3733L18.9053 25.7106L15.4725 26.6171L17.3691 31.8584L24.8878 31.9534L24.9021 31.9449L23.9625 28.387Z" fill="#EBEBEB"/>
<path d="M21.6056 19.5099L22.5086 22.9295L26.7192 21.8175L27.4944 26.3573L23.9516 28.3935L24.8911 31.9514L31.3885 28.1562L31.2868 27.5653L29.7128 18.3512L29.5543 17.4108L21.6056 19.5099ZM19.7778 12.5889L20.6809 16.0084L28.9405 13.8272L28.8064 13.0413L28.5046 11.2666L28.3439 10.3267L19.7778 12.5889Z" fill="white"/>
</g>
<defs>
<clipPath id="clip0_2303_2091">
<rect width="36.6153" height="36.6153" fill="white" transform="translate(0 9.34897) rotate(-14.7931)"/>
</clipPath>
</defs>
</svg>
