<svg width="109" height="65" viewBox="0 0 109 65" fill="none" xmlns="http://www.w3.org/2000/svg">
<path d="M74.7803 23.5121C57.8208 28.2955 41.1331 35.7778 25.0766 42.9498C17.4253 46.3674 -2.94931 60.8574 2.97615 54.9319C12.7001 45.208 28.0952 40.2153 39.9877 34.0741C60.0825 23.6973 79.092 10.7767 100.875 4.07436C101.273 3.9519 111.321 0.125339 105.668 3.71934C98.4371 8.31589 91.5909 13.154 85.5198 19.2518C77.5295 27.2772 70.1276 35.7483 61.8218 43.4823C56.0223 48.8826 50.0098 54.04 45.0468 60.2573C43.2482 62.5106 42.246 63.7885 45.7569 62.565C54.6702 59.4589 63.4406 55.8477 72.2063 52.358C75.1637 51.1806 87.0908 46.3768 90.4015 45.0799C92.7715 44.1515 99.6049 40.9496 97.5907 42.506C94.8733 44.6058 91.2924 45.2498 88.0938 46.5C74.265 51.9052 79.4235 49.7131 64.3958 55.4645" stroke="#FFB606" stroke-width="3" stroke-linecap="round"/>
</svg>
