<svg width="96" height="30" viewBox="0 0 96 30" fill="none" xmlns="http://www.w3.org/2000/svg">
<path d="M49.8198 8.20486C45.2272 11.8664 36.9882 8.42142 33.6629 7.76613C23.4688 5.75729 13.4302 2.5347 2.54297 2.03602C1.07853 1.96895 2.85389 1.68152 3.19631 1.66633C5.57672 1.56072 7.79107 2.07663 9.95003 2.46561C26.8895 5.51756 43.7177 9.20647 61.0884 11.3313C63.1058 11.5781 66.5123 12.4051 69.0597 11.4547C70.2325 11.0171 66.8452 11.5614 65.7135 11.7034C53.8547 13.1917 43.1249 12.0808 31.7194 12.2336C31.2391 12.24 25.0786 11.9191 24.2071 12.9992C23.6996 13.6281 24.802 13.9686 25.2788 14.2464C27.2234 15.3794 28.7527 15.791 31.2022 16.4031C51.481 21.4704 72.9306 24.6331 94.0367 28.062" stroke="#FFB606" stroke-width="3" stroke-linecap="round"/>
</svg>
