<svg width="1440" height="2510" viewBox="0 0 1440 2510" fill="none" xmlns="http://www.w3.org/2000/svg">
<g opacity="0.12">
<line x1="198" y1="472.5" x2="1243" y2="472.5" stroke="black"/>
<line x1="82" y1="792.5" x2="1359" y2="792.5" stroke="black"/>
<line x1="82" y1="728.5" x2="1359" y2="728.5" stroke="black"/>
<line x1="82" y1="1048.5" x2="1359" y2="1048.5" stroke="black"/>
<line x1="198" y1="408.5" x2="1243" y2="408.5" stroke="black"/>
<line x1="198" y1="664.5" x2="1243" y2="664.5" stroke="black"/>
<line x1="82" y1="984.5" x2="1359" y2="984.5" stroke="black"/>
<line x1="82" y1="344.5" x2="1359" y2="344.5" stroke="black"/>
<line x1="198" y1="600.5" x2="1243" y2="600.5" stroke="black"/>
<line x1="82" y1="920.5" x2="1359" y2="920.5" stroke="black"/>
<line x1="198" y1="536.5" x2="1243" y2="536.5" stroke="black"/>
<line x1="82" y1="856.5" x2="1359" y2="856.5" stroke="black"/>
<line x1="1" y1="248.5" x2="1441" y2="248.5" stroke="black"/>
<line x1="1" y1="80.5001" x2="1441" y2="80.5003" stroke="black"/>
<line x1="1" y1="0.5" x2="1441" y2="0.500126" stroke="black"/>
<line x1="82.5" y1="1011" x2="82.5001" y2="80" stroke="black"/>
<line x1="662.5" y1="793" x2="662.5" y2="536" stroke="black"/>
<line x1="1010.5" y1="793" x2="1010.5" y2="536" stroke="black"/>
<line x1="430.5" y1="793" x2="430.5" y2="536" stroke="black"/>
<line x1="1358.5" y1="1011" x2="1358.5" y2="80" stroke="black"/>
<line x1="314.5" y1="921" x2="314.5" y2="410" stroke="black"/>
<line x1="1242.5" y1="1011" x2="1242.5" y2="248" stroke="black"/>
<line x1="198.5" y1="1011" x2="198.5" y2="248" stroke="black"/>
<line x1="778.5" y1="793" x2="778.5" y2="536" stroke="black"/>
<line x1="1126.5" y1="921" x2="1126.5" y2="410" stroke="black"/>
<g clip-path="url(#clip0_2021_923)">
<mask id="path-26-inside-1_2021_923" fill="white">
<path d="M1358 344H1477V729H1358V344Z"/>
</mask>
<line x1="1297.65" y1="389.124" x2="1493.13" y2="297.97" stroke="black"/>
<line x1="1297.65" y1="620.512" x2="1493.13" y2="529.359" stroke="black"/>
<line x1="1297.65" y1="504.818" x2="1493.13" y2="413.665" stroke="black"/>
<line x1="1297.65" y1="736.207" x2="1493.13" y2="645.053" stroke="black"/>
<line x1="1297.65" y1="405.651" x2="1493.13" y2="314.498" stroke="black"/>
<line x1="1297.65" y1="637.04" x2="1493.13" y2="545.887" stroke="black"/>
<line x1="1297.65" y1="521.346" x2="1493.13" y2="430.192" stroke="black"/>
<line x1="1297.65" y1="752.735" x2="1493.13" y2="661.581" stroke="black"/>
<line x1="1297.65" y1="422.179" x2="1493.13" y2="331.026" stroke="black"/>
<line x1="1297.65" y1="653.568" x2="1493.13" y2="562.414" stroke="black"/>
<line x1="1297.65" y1="537.874" x2="1493.13" y2="446.72" stroke="black"/>
<line x1="1297.65" y1="769.262" x2="1493.13" y2="678.109" stroke="black"/>
<line x1="1297.65" y1="438.707" x2="1493.13" y2="347.553" stroke="black"/>
<line x1="1297.65" y1="670.096" x2="1493.13" y2="578.942" stroke="black"/>
<line x1="1297.65" y1="554.401" x2="1493.13" y2="463.248" stroke="black"/>
<line x1="1297.65" y1="785.79" x2="1493.13" y2="694.637" stroke="black"/>
<line x1="1297.65" y1="455.235" x2="1493.13" y2="364.081" stroke="black"/>
<line x1="1297.65" y1="686.624" x2="1493.13" y2="595.47" stroke="black"/>
<line x1="1297.65" y1="570.929" x2="1493.13" y2="479.776" stroke="black"/>
<line x1="1297.65" y1="802.318" x2="1493.13" y2="711.164" stroke="black"/>
<line x1="1297.65" y1="471.763" x2="1493.13" y2="380.609" stroke="black"/>
<line x1="1297.65" y1="703.151" x2="1493.13" y2="611.998" stroke="black"/>
<line x1="1297.65" y1="587.457" x2="1493.13" y2="496.303" stroke="black"/>
<line x1="1297.65" y1="818.846" x2="1493.13" y2="727.692" stroke="black"/>
<line x1="1297.65" y1="488.29" x2="1493.13" y2="397.137" stroke="black"/>
<line x1="1297.65" y1="719.679" x2="1493.13" y2="628.526" stroke="black"/>
<line x1="1297.65" y1="603.985" x2="1493.13" y2="512.831" stroke="black"/>
</g>
<path d="M1358 345H1477V343H1358V345ZM1477 728H1358V730H1477V728Z" fill="black" mask="url(#path-26-inside-1_2021_923)"/>
<g clip-path="url(#clip1_2021_923)">
<mask id="path-55-inside-2_2021_923" fill="white">
<path d="M-36 344H83V729H-36V344Z"/>
</mask>
<line x1="-96.35" y1="389.124" x2="99.1293" y2="297.97" stroke="black"/>
<line x1="-96.35" y1="620.512" x2="99.1293" y2="529.359" stroke="black"/>
<line x1="-96.35" y1="504.818" x2="99.1293" y2="413.665" stroke="black"/>
<line x1="-96.35" y1="736.207" x2="99.1293" y2="645.053" stroke="black"/>
<line x1="-96.35" y1="405.651" x2="99.1293" y2="314.498" stroke="black"/>
<line x1="-96.35" y1="637.04" x2="99.1293" y2="545.887" stroke="black"/>
<line x1="-96.35" y1="521.346" x2="99.1293" y2="430.192" stroke="black"/>
<line x1="-96.35" y1="752.735" x2="99.1293" y2="661.581" stroke="black"/>
<line x1="-96.35" y1="422.179" x2="99.1293" y2="331.026" stroke="black"/>
<line x1="-96.35" y1="653.568" x2="99.1293" y2="562.414" stroke="black"/>
<line x1="-96.35" y1="537.874" x2="99.1293" y2="446.72" stroke="black"/>
<line x1="-96.35" y1="769.262" x2="99.1293" y2="678.109" stroke="black"/>
<line x1="-96.35" y1="438.707" x2="99.1293" y2="347.553" stroke="black"/>
<line x1="-96.35" y1="670.096" x2="99.1293" y2="578.942" stroke="black"/>
<line x1="-96.35" y1="554.401" x2="99.1293" y2="463.248" stroke="black"/>
<line x1="-96.35" y1="785.79" x2="99.1293" y2="694.637" stroke="black"/>
<line x1="-96.35" y1="455.235" x2="99.1293" y2="364.081" stroke="black"/>
<line x1="-96.35" y1="686.624" x2="99.1293" y2="595.47" stroke="black"/>
<line x1="-96.35" y1="570.929" x2="99.1293" y2="479.776" stroke="black"/>
<line x1="-96.35" y1="802.318" x2="99.1293" y2="711.164" stroke="black"/>
<line x1="-96.35" y1="471.763" x2="99.1293" y2="380.609" stroke="black"/>
<line x1="-96.35" y1="703.151" x2="99.1293" y2="611.998" stroke="black"/>
<line x1="-96.35" y1="587.457" x2="99.1293" y2="496.303" stroke="black"/>
<line x1="-96.35" y1="818.846" x2="99.1293" y2="727.692" stroke="black"/>
<line x1="-96.35" y1="488.29" x2="99.1293" y2="397.137" stroke="black"/>
<line x1="-96.35" y1="719.679" x2="99.1293" y2="628.526" stroke="black"/>
<line x1="-96.35" y1="603.985" x2="99.1293" y2="512.831" stroke="black"/>
</g>
<path d="M-36 345H83V343H-36V345ZM83 728H-36V730H83V728Z" fill="black" mask="url(#path-55-inside-2_2021_923)"/>
<g opacity="0.12">
<line x1="198" y1="1521.5" x2="1243" y2="1521.5" stroke="black"/>
<line x1="82" y1="1841.5" x2="1359" y2="1841.5" stroke="black"/>
<line x1="82" y1="1777.5" x2="1359" y2="1777.5" stroke="black"/>
<line x1="82" y1="2097.5" x2="1359" y2="2097.5" stroke="black"/>
<line x1="198" y1="1457.5" x2="1243" y2="1457.5" stroke="black"/>
<line x1="198" y1="1713.5" x2="1243" y2="1713.5" stroke="black"/>
<line x1="82" y1="2033.5" x2="1359" y2="2033.5" stroke="black"/>
<line x1="82" y1="1393.5" x2="1359" y2="1393.5" stroke="black"/>
<line x1="198" y1="1649.5" x2="1243" y2="1649.5" stroke="black"/>
<line x1="82" y1="1969.5" x2="1359" y2="1969.5" stroke="black"/>
<line x1="198" y1="1585.5" x2="1243" y2="1585.5" stroke="black"/>
<line x1="82" y1="1905.5" x2="1359" y2="1905.5" stroke="black"/>
<line x1="1" y1="1297.5" x2="1441" y2="1297.5" stroke="black"/>
<line x1="1" y1="1129.5" x2="1441" y2="1129.5" stroke="black"/>
<line x1="1" y1="1049.5" x2="1441" y2="1049.5" stroke="black"/>
<line x1="82.5" y1="2060" x2="82.5001" y2="1129" stroke="black"/>
<line x1="662.5" y1="1842" x2="662.5" y2="1585" stroke="black"/>
<line x1="1010.5" y1="1842" x2="1010.5" y2="1585" stroke="black"/>
<line x1="430.5" y1="1842" x2="430.5" y2="1585" stroke="black"/>
<line x1="1358.5" y1="2060" x2="1358.5" y2="1129" stroke="black"/>
<line x1="314.5" y1="1970" x2="314.5" y2="1459" stroke="black"/>
<line x1="1242.5" y1="2060" x2="1242.5" y2="1297" stroke="black"/>
<line x1="198.5" y1="2060" x2="198.5" y2="1297" stroke="black"/>
<line x1="778.5" y1="1842" x2="778.5" y2="1585" stroke="black"/>
<line x1="1126.5" y1="1970" x2="1126.5" y2="1459" stroke="black"/>
<g clip-path="url(#clip2_2021_923)">
<mask id="path-109-inside-3_2021_923" fill="white">
<path d="M1358 1393H1477V1778H1358V1393Z"/>
</mask>
<line x1="1297.65" y1="1438.12" x2="1493.13" y2="1346.97" stroke="black"/>
<line x1="1297.65" y1="1669.51" x2="1493.13" y2="1578.36" stroke="black"/>
<line x1="1297.65" y1="1553.82" x2="1493.13" y2="1462.66" stroke="black"/>
<line x1="1297.65" y1="1785.21" x2="1493.13" y2="1694.05" stroke="black"/>
<line x1="1297.65" y1="1454.65" x2="1493.13" y2="1363.5" stroke="black"/>
<line x1="1297.65" y1="1686.04" x2="1493.13" y2="1594.89" stroke="black"/>
<line x1="1297.65" y1="1570.35" x2="1493.13" y2="1479.19" stroke="black"/>
<line x1="1297.65" y1="1801.73" x2="1493.13" y2="1710.58" stroke="black"/>
<line x1="1297.65" y1="1471.18" x2="1493.13" y2="1380.03" stroke="black"/>
<line x1="1297.65" y1="1702.57" x2="1493.13" y2="1611.41" stroke="black"/>
<line x1="1297.65" y1="1586.87" x2="1493.13" y2="1495.72" stroke="black"/>
<line x1="1297.65" y1="1818.26" x2="1493.13" y2="1727.11" stroke="black"/>
<line x1="1297.65" y1="1487.71" x2="1493.13" y2="1396.55" stroke="black"/>
<line x1="1297.65" y1="1719.1" x2="1493.13" y2="1627.94" stroke="black"/>
<line x1="1297.65" y1="1603.4" x2="1493.13" y2="1512.25" stroke="black"/>
<line x1="1297.65" y1="1834.79" x2="1493.13" y2="1743.64" stroke="black"/>
<line x1="1297.65" y1="1504.23" x2="1493.13" y2="1413.08" stroke="black"/>
<line x1="1297.65" y1="1735.62" x2="1493.13" y2="1644.47" stroke="black"/>
<line x1="1297.65" y1="1619.93" x2="1493.13" y2="1528.78" stroke="black"/>
<line x1="1297.65" y1="1851.32" x2="1493.13" y2="1760.16" stroke="black"/>
<line x1="1297.65" y1="1520.76" x2="1493.13" y2="1429.61" stroke="black"/>
<line x1="1297.65" y1="1752.15" x2="1493.13" y2="1661" stroke="black"/>
<line x1="1297.65" y1="1636.46" x2="1493.13" y2="1545.3" stroke="black"/>
<line x1="1297.65" y1="1867.85" x2="1493.13" y2="1776.69" stroke="black"/>
<line x1="1297.65" y1="1537.29" x2="1493.13" y2="1446.14" stroke="black"/>
<line x1="1297.65" y1="1768.68" x2="1493.13" y2="1677.53" stroke="black"/>
<line x1="1297.65" y1="1652.98" x2="1493.13" y2="1561.83" stroke="black"/>
</g>
<path d="M1358 1394H1477V1392H1358V1394ZM1477 1777H1358V1779H1477V1777Z" fill="black" mask="url(#path-109-inside-3_2021_923)"/>
<g clip-path="url(#clip3_2021_923)">
<mask id="path-138-inside-4_2021_923" fill="white">
<path d="M-36 1393H83V1778H-36V1393Z"/>
</mask>
<line x1="-96.35" y1="1438.12" x2="99.1293" y2="1346.97" stroke="black"/>
<line x1="-96.35" y1="1669.51" x2="99.1293" y2="1578.36" stroke="black"/>
<line x1="-96.35" y1="1553.82" x2="99.1293" y2="1462.66" stroke="black"/>
<line x1="-96.35" y1="1785.21" x2="99.1293" y2="1694.05" stroke="black"/>
<line x1="-96.35" y1="1454.65" x2="99.1293" y2="1363.5" stroke="black"/>
<line x1="-96.35" y1="1686.04" x2="99.1293" y2="1594.89" stroke="black"/>
<line x1="-96.35" y1="1570.35" x2="99.1293" y2="1479.19" stroke="black"/>
<line x1="-96.35" y1="1801.73" x2="99.1293" y2="1710.58" stroke="black"/>
<line x1="-96.35" y1="1471.18" x2="99.1293" y2="1380.03" stroke="black"/>
<line x1="-96.35" y1="1702.57" x2="99.1293" y2="1611.41" stroke="black"/>
<line x1="-96.35" y1="1586.87" x2="99.1293" y2="1495.72" stroke="black"/>
<line x1="-96.35" y1="1818.26" x2="99.1293" y2="1727.11" stroke="black"/>
<line x1="-96.35" y1="1487.71" x2="99.1293" y2="1396.55" stroke="black"/>
<line x1="-96.35" y1="1719.1" x2="99.1293" y2="1627.94" stroke="black"/>
<line x1="-96.35" y1="1603.4" x2="99.1293" y2="1512.25" stroke="black"/>
<line x1="-96.35" y1="1834.79" x2="99.1293" y2="1743.64" stroke="black"/>
<line x1="-96.35" y1="1504.23" x2="99.1293" y2="1413.08" stroke="black"/>
<line x1="-96.35" y1="1735.62" x2="99.1293" y2="1644.47" stroke="black"/>
<line x1="-96.35" y1="1619.93" x2="99.1293" y2="1528.78" stroke="black"/>
<line x1="-96.35" y1="1851.32" x2="99.1293" y2="1760.16" stroke="black"/>
<line x1="-96.35" y1="1520.76" x2="99.1293" y2="1429.61" stroke="black"/>
<line x1="-96.35" y1="1752.15" x2="99.1293" y2="1661" stroke="black"/>
<line x1="-96.35" y1="1636.46" x2="99.1293" y2="1545.3" stroke="black"/>
<line x1="-96.35" y1="1867.85" x2="99.1293" y2="1776.69" stroke="black"/>
<line x1="-96.35" y1="1537.29" x2="99.1293" y2="1446.14" stroke="black"/>
<line x1="-96.35" y1="1768.68" x2="99.1293" y2="1677.53" stroke="black"/>
<line x1="-96.35" y1="1652.98" x2="99.1293" y2="1561.83" stroke="black"/>
</g>
<path d="M-36 1394H83V1392H-36V1394ZM83 1777H-36V1779H83V1777Z" fill="black" mask="url(#path-138-inside-4_2021_923)"/>
</g>
</g>
<defs>
<clipPath id="clip0_2021_923">
<path d="M1358 344H1477V729H1358V344Z" fill="white"/>
</clipPath>
<clipPath id="clip1_2021_923">
<path d="M-36 344H83V729H-36V344Z" fill="white"/>
</clipPath>
<clipPath id="clip2_2021_923">
<path d="M1358 1393H1477V1778H1358V1393Z" fill="white"/>
</clipPath>
<clipPath id="clip3_2021_923">
<path d="M-36 1393H83V1778H-36V1393Z" fill="white"/>
</clipPath>
</defs>
</svg>
